<svg width="6.8266599999999995" height="6.8266599999999995" xmlns="http://www.w3.org/2000/svg">

 <g>
  <title>background</title>
  <rect fill="none" id="canvas_background" height="402" width="582" y="-1" x="-1"/>
 </g>
 <g>
  <title>Layer 1</title>
  <path fill-rule="nonzero" fill="#000000" id="svg_1" d="m2.02606,0.85333l2.77453,0c0.12133,0 0.23159,0.04958 0.31146,0.12945c0.07987,0.07987 0.12945,0.19013 0.12945,0.31146l0,4.23818c0,0.12134 -0.04958,0.23159 -0.12945,0.31146c-0.07987,0.07987 -0.19013,0.12946 -0.31146,0.12946l-2.77453,0c-0.12134,0 -0.23159,-0.04959 -0.31146,-0.12946c-0.07987,-0.07987 -0.12945,-0.19012 -0.12945,-0.31146l0,-4.23818c0,-0.12133 0.04958,-0.23159 0.12945,-0.31146c0.07987,-0.07987 0.19012,-0.12945 0.31146,-0.12945zm0.1581,4.23876c-0.02211,0 -0.04001,0.0179 -0.04001,0.04c0,0.02211 0.0179,0.04001 0.04001,0.04001l2.45833,0c0.0221,0 0.04,-0.0179 0.04,-0.04001c0,-0.0221 -0.0179,-0.04 -0.04,-0.04l-2.45833,0zm0,-0.6875c-0.02211,0 -0.04001,0.01789 -0.04001,0.04c0,0.02211 0.0179,0.04 0.04001,0.04l2.45833,0c0.0221,0 0.04,-0.01789 0.04,-0.04c0,-0.02211 -0.0179,-0.04 -0.04,-0.04l-2.45833,0zm0,-0.68751c-0.02211,0 -0.04001,0.0179 -0.04001,0.04001c0,0.0221 0.0179,0.04 0.04001,0.04l2.45833,0c0.0221,0 0.04,-0.0179 0.04,-0.04c0,-0.02211 -0.0179,-0.04001 -0.04,-0.04001l-2.45833,0zm0,-0.6875c-0.02211,0 -0.04001,0.0179 -0.04001,0.04c0,0.02211 0.0179,0.04001 0.04001,0.04001l2.45833,0c0.0221,0 0.04,-0.0179 0.04,-0.04001c0,-0.0221 -0.0179,-0.04 -0.04,-0.04l-2.45833,0zm0,-0.68751c-0.02211,0 -0.04001,0.0179 -0.04001,0.04001c0,0.02211 0.0179,0.04 0.04001,0.04l2.45833,0c0.0221,0 0.04,-0.01789 0.04,-0.04c0,-0.02211 -0.0179,-0.04001 -0.04,-0.04001l-2.45833,0zm0,-0.6875c-0.02211,0 -0.04001,0.0179 -0.04001,0.04c0,0.02211 0.0179,0.04001 0.04001,0.04001l2.45833,0c0.0221,0 0.04,-0.0179 0.04,-0.04001c0,-0.0221 -0.0179,-0.04 -0.04,-0.04l-2.45833,0z" class="fil0"/>
  <rect fill="none" id="svg_2" width="6.82666" height="6.82666" class="fil1"/>
 </g>
</svg>