<svg width="240" height="240" xmlns="http://www.w3.org/2000/svg">

 <g>
  <title>background</title>
  <rect fill="none" id="canvas_background" height="402" width="582" y="-1" x="-1"/>
 </g>
 <g>
  <title>Layer 1</title>
  <path fill="#ffffff" id="svg_1" d="m80,119.834c0,13.241 -10.729,23.979 -23.963,23.979c-13.232,0 -23.962,-10.737 -23.962,-23.979c0,-13.239 10.729,-23.975 23.962,-23.975c13.234,0 23.963,10.736 23.963,23.975zm0,23.978c42.6,0 85.201,0 127.801,0c-45.042,-43.627 -82.147,-41.609 -127.801,0l0,0zm144.025,-31.718l0,47.953l-208.05,0l0,-80.047l-15.975,0l0,127.875l15.975,0l0,-16.109l208.05,0l0,16.234l15.975,0l0,-95.906l-15.975,0z"/>
 </g>
</svg>